<?xml version="1.0" standalone="no"?>
<!DOCTYPE svg PUBLIC "-//W3C//DTD SVG 20010904//EN"
 "http://www.w3.org/TR/2001/REC-SVG-20010904/DTD/svg10.dtd">
<svg version="1.0" xmlns="http://www.w3.org/2000/svg"
 width="992.000000pt" height="606.000000pt" viewBox="0 0 992.000000 606.000000"
 preserveAspectRatio="xMidYMid meet">

<g transform="translate(0.000000,606.000000) scale(0.100000,-0.100000)"
fill="#000000" stroke="none">
<path d="M370 3040 l0 -2800 4590 0 4590 0 0 2800 0 2800 -4590 0 -4590 0 0
-2800z m8860 0 l0 -2500 -4255 0 -4255 0 0 2500 0 2500 4255 0 4255 0 0 -2500z"/>
<path d="M7080 4700 l0 -239 -87 -3 -87 -3 -43 -160 c-23 -88 -43 -161 -43
-162 0 -1 57 -4 128 -5 l127 -3 6 -300 c6 -313 9 -335 56 -428 71 -142 259
-234 458 -225 l70 3 55 190 55 190 -100 0 c-82 0 -106 4 -135 20 -65 38 -70
61 -70 323 l0 232 85 0 84 0 10 38 c42 154 71 269 71 280 0 9 -32 12 -125 12
l-125 0 0 240 0 240 -195 0 -195 0 0 -240z"/>
<path d="M1838 4500 c-119 -21 -235 -83 -291 -155 -60 -76 -72 -118 -72 -255
0 -146 15 -191 86 -260 62 -60 134 -93 302 -135 82 -21 159 -47 173 -57 26
-21 32 -64 14 -98 -18 -34 -91 -53 -182 -48 -92 5 -158 29 -221 80 -21 16 -42
26 -46 22 -4 -5 -45 -58 -91 -119 -46 -60 -87 -115 -92 -122 -12 -16 118 -103
200 -133 135 -52 324 -64 456 -30 253 64 383 245 348 482 -15 102 -51 169
-117 219 -63 47 -116 68 -283 109 -159 39 -195 61 -190 119 2 30 9 39 38 54
54 28 163 19 239 -20 l59 -30 107 107 107 107 -49 35 c-57 42 -148 89 -218
113 -58 19 -209 28 -277 15z"/>
<path d="M3025 4503 c-186 -26 -334 -121 -399 -256 -56 -116 -59 -137 -63
-604 l-5 -433 201 0 201 0 0 410 c0 450 0 453 59 503 28 23 42 27 93 27 74 0
111 -20 138 -75 19 -39 20 -63 20 -453 l0 -412 200 0 200 0 0 412 c0 390 1
414 20 453 27 55 64 75 138 75 51 0 65 -4 93 -27 59 -50 59 -53 59 -503 l0
-410 201 0 201 0 -5 433 c-4 467 -7 488 -63 604 -116 240 -488 334 -774 197
l-71 -34 -62 31 c-100 51 -266 78 -382 62z"/>
<path d="M5098 4500 c-231 -39 -432 -180 -526 -367 -127 -257 -83 -539 118
-743 194 -199 499 -267 771 -175 86 29 79 29 79 10 0 -13 28 -15 195 -15 l195
0 0 358 c0 406 -7 455 -76 579 -44 79 -146 189 -222 239 -145 97 -361 143
-534 114z m255 -378 c74 -32 149 -112 172 -183 37 -111 1 -245 -86 -324 -64
-57 -115 -78 -204 -83 -103 -5 -173 19 -244 86 -70 66 -96 126 -96 227 0 70 4
87 29 133 88 158 263 217 429 144z"/>
<path d="M6455 4494 c-162 -34 -283 -121 -344 -247 -55 -110 -61 -173 -61
-628 l0 -409 195 0 194 0 3 413 c3 389 4 414 23 451 28 55 64 79 122 80 26 1
60 -2 76 -7 l27 -7 -2 182 -3 183 -80 2 c-44 1 -111 -5 -150 -13z"/>
<path d="M5084 2830 c-139 -25 -266 -92 -369 -195 -80 -80 -125 -151 -163
-257 -23 -65 -26 -87 -26 -203 0 -116 3 -138 28 -210 75 -217 233 -365 466
-436 96 -29 262 -31 360 -5 114 31 280 126 262 149 -5 7 -42 59 -82 117 -40
58 -84 120 -98 138 l-24 34 -27 -25 c-80 -76 -223 -100 -323 -55 -75 35 -122
79 -158 150 -53 108 -102 98 466 98 l497 0 -6 93 c-10 163 -69 291 -192 412
-88 88 -171 138 -290 175 -80 24 -241 34 -321 20z m251 -376 c28 -13 64 -37
80 -54 l29 -30 -240 0 -239 1 45 39 c90 79 216 96 325 44z"/>
<path d="M6608 2830 c-231 -39 -432 -180 -526 -367 -127 -257 -83 -539 118
-743 194 -199 499 -267 771 -175 86 29 79 29 79 10 0 -13 28 -15 195 -15 l195
0 0 358 c0 406 -7 455 -76 579 -44 79 -146 189 -222 239 -145 97 -361 143
-534 114z m255 -378 c74 -32 149 -112 172 -183 37 -111 1 -245 -86 -324 -64
-57 -115 -78 -204 -83 -103 -5 -173 19 -244 86 -70 66 -96 126 -96 227 0 70 4
87 29 133 88 158 263 217 429 144z"/>
<path d="M7975 2824 c-162 -34 -283 -121 -344 -247 -55 -110 -61 -173 -61
-628 l0 -409 195 0 194 0 3 413 c3 389 4 414 23 451 28 55 64 79 122 80 26 1
60 -2 76 -7 l27 -7 -2 182 -3 183 -80 2 c-44 1 -111 -5 -150 -13z"/>
<path d="M2584 2775 c-3 -8 -4 -200 -1 -427 4 -446 7 -470 63 -585 79 -164
256 -257 489 -257 124 0 203 18 296 65 l58 29 58 -29 c93 -47 174 -65 298 -65
233 0 410 93 489 257 58 118 60 145 61 602 l0 420 -195 0 -195 0 -5 -415 c-4
-302 -8 -421 -17 -436 -7 -12 -26 -34 -44 -48 -25 -22 -40 -26 -91 -26 -74 0
-111 20 -138 75 -19 39 -20 63 -20 448 l0 407 -200 0 -200 0 0 -407 c0 -385
-1 -409 -20 -448 -27 -55 -64 -75 -138 -75 -51 0 -66 4 -91 26 -18 14 -37 36
-44 48 -9 15 -13 134 -17 436 l-5 415 -193 3 c-164 2 -193 0 -198 -13z"/>
</g>
</svg>
